<mxfile host="app.diagrams.net" agent="Mozilla/5.0 (Windows NT 10.0; Win64; x64) AppleWebKit/537.36 (KHTML, like Gecko) Chrome/131.0.0.0 Safari/537.36" version="25.0.0">
  <diagram name="Página-1" id="mtzX65O3zEKVlkoNe_6G">
    <mxGraphModel dx="1434" dy="780" grid="1" gridSize="10" guides="1" tooltips="1" connect="1" arrows="1" fold="1" page="1" pageScale="1" pageWidth="827" pageHeight="1169" math="0" shadow="0">
      <root>
        <mxCell id="0" />
        <mxCell id="1" parent="0" />
        <mxCell id="3CRcrzJiDKFiaMOm2r3d-6" value="&lt;div&gt;&lt;br&gt;&lt;/div&gt;Cadastrar tarefa&lt;div&gt;&lt;br&gt;&lt;/div&gt;" style="rounded=1;whiteSpace=wrap;html=1;" vertex="1" parent="1">
          <mxGeometry x="450" y="120" width="120" height="60" as="geometry" />
        </mxCell>
        <mxCell id="3CRcrzJiDKFiaMOm2r3d-8" value="Gerenciar Tarefa (Alterar status e prioridade)" style="rounded=1;whiteSpace=wrap;html=1;" vertex="1" parent="1">
          <mxGeometry x="450" y="200" width="120" height="60" as="geometry" />
        </mxCell>
        <mxCell id="3CRcrzJiDKFiaMOm2r3d-18" style="edgeStyle=orthogonalEdgeStyle;rounded=0;orthogonalLoop=1;jettySize=auto;html=1;exitX=0.5;exitY=0;exitDx=0;exitDy=0;exitPerimeter=0;" edge="1" parent="1" source="3CRcrzJiDKFiaMOm2r3d-11" target="3CRcrzJiDKFiaMOm2r3d-6">
          <mxGeometry relative="1" as="geometry">
            <Array as="points">
              <mxPoint x="245" y="150" />
            </Array>
          </mxGeometry>
        </mxCell>
        <mxCell id="3CRcrzJiDKFiaMOm2r3d-20" style="edgeStyle=orthogonalEdgeStyle;rounded=0;orthogonalLoop=1;jettySize=auto;html=1;" edge="1" parent="1" source="3CRcrzJiDKFiaMOm2r3d-11" target="3CRcrzJiDKFiaMOm2r3d-8">
          <mxGeometry relative="1" as="geometry" />
        </mxCell>
        <mxCell id="3CRcrzJiDKFiaMOm2r3d-21" style="edgeStyle=orthogonalEdgeStyle;rounded=0;orthogonalLoop=1;jettySize=auto;html=1;" edge="1" parent="1" source="3CRcrzJiDKFiaMOm2r3d-11" target="3CRcrzJiDKFiaMOm2r3d-13">
          <mxGeometry relative="1" as="geometry">
            <Array as="points">
              <mxPoint x="245" y="320" />
            </Array>
          </mxGeometry>
        </mxCell>
        <mxCell id="3CRcrzJiDKFiaMOm2r3d-11" value="Usuário" style="shape=umlActor;verticalLabelPosition=bottom;verticalAlign=top;html=1;outlineConnect=0;" vertex="1" parent="1">
          <mxGeometry x="230" y="200" width="30" height="60" as="geometry" />
        </mxCell>
        <mxCell id="3CRcrzJiDKFiaMOm2r3d-13" value="&lt;div&gt;&lt;br&gt;&lt;/div&gt;Atualizar Tarefa&lt;div&gt;&lt;br&gt;&lt;/div&gt;" style="rounded=1;whiteSpace=wrap;html=1;" vertex="1" parent="1">
          <mxGeometry x="450" y="280" width="120" height="60" as="geometry" />
        </mxCell>
      </root>
    </mxGraphModel>
  </diagram>
</mxfile>
